<?xml version="1.0" encoding="UTF-8" standalone="no"?>
<!-- Created with Inkscape (http://www.inkscape.org/) -->

<svg
   width="1234.4963mm"
   height="243.45627mm"
   viewBox="0 0 1234.4963 243.45627"
   version="1.1"
   id="svg5"
   xml:space="preserve"
   xmlns="http://www.w3.org/2000/svg"
   xmlns:svg="http://www.w3.org/2000/svg"><defs
     id="defs2" /><g
     id="layer1"
     transform="translate(587.52064,8.8736409)"><path
       d="m -587.51932,77.391029 h 9.78403 V 1.2280712 l 30.59112,76.1629578 h 8.02005 L -508.13083,1.7096129 V 77.391029 h 11.01064 V -7.6619286 h -16.43989 l -28.55383,71.4242696 -28.829,-71.4242696 h -16.57773 V 77.391029"
       id="path688"
       style="stroke-width:0.264583" /><path
       d="m -480.94251,1.5855233 h 10.33516 v -9.2466582 h -10.33516 z m 0,75.8057697 h 10.33516 V 14.235252 h -10.33516 v 63.156041"
       fill-rule="evenodd"
       id="path690"
       style="stroke-width:0.264583" /><path
       d="m -388.62674,77.391029 h 10.45924 V 45.392321 c 0,-14.483292 8.57145,-23.357681 21.89692,-23.357681 h 1.7639 v -9.370748 c -1.36427,-0.12409 -2.59072,-0.247915 -3.80339,-0.247915 -9.65993,0 -16.17821,5.236634 -20.39487,15.819967 V 14.234988 h -9.92188 v 63.156041"
       id="path692"
       style="stroke-width:0.264583" /><path
       d="m -321.50724,78.494341 c 18.63116,0 31.54362,-12.898437 31.54362,-32.977666 0,-20.201996 -12.91219,-32.977666 -31.54362,-32.977666 -18.47956,0 -31.26846,12.774347 -31.26846,32.977666 0,20.077906 12.78811,32.977666 31.26846,32.977666 z m 0,-7.785894 c -11.96128,0 -19.9816,-9.246658 -19.9816,-25.190449 0,-16.067881 7.88247,-25.19045 19.9816,-25.19045 12.09913,0 20.11945,9.246658 20.11945,25.19045 0,15.819966 -8.14414,25.190449 -20.11945,25.190449"
       fill-rule="evenodd"
       id="path694"
       style="stroke-width:0.264583" /><path
       d="m -187.97203,78.494341 c 18.61714,0 31.54362,-12.898437 31.54362,-32.977666 0,-20.201996 -12.92595,-32.977666 -31.54362,-32.977666 -18.49332,0 -31.26846,12.774347 -31.26846,32.977666 0,20.077906 12.77435,32.977666 31.26846,32.977666 z m 0,-7.785894 c -11.96129,0 -19.9816,-9.246658 -19.9816,-25.190449 0,-16.067881 7.88247,-25.19045 19.9816,-25.19045 12.09913,0 20.11944,9.246658 20.11944,25.19045 0,15.819966 -8.1579,25.190449 -20.11944,25.190449"
       fill-rule="evenodd"
       id="path696"
       style="stroke-width:0.264583" /><path
       d="m -128.86412,14.236046 c 0,-0.716571 -0.13785,-1.570963 -0.13785,-2.301319 0,-8.8884127 3.94124,-13.0225272 12.49892,-13.0225272 1.90169,0 4.76806,0.23415626 8.43359,0.8543925 v -7.799652 c -3.4036,-0.6063191 -6.7937,-0.8405812 -10.33515,-0.8405812 -14.1388,0 -20.79466,7.4138895 -20.79466,22.6274309 v 0.482309 h -12.37483 v 6.821223 h 12.37483 v 56.335082 h 10.33515 V 21.057322 h 26.37579 v 33.086145 c 0,8.034073 0,13.876867 2.852468,17.528646 3.941234,5.222875 9.659938,7.413889 17.941925,7.413889 2.866231,0 5.856552,-0.358298 8.70929,-0.964618 v -7.785893 c -2.576883,0.606319 -5.029729,0.716571 -7.206986,0.716571 -10.597091,0 -11.823699,-4.988454 -11.823699,-16.660548 V 21.05666 h 16.577733 V 14.235438 H -92.015332 V -1.5845289 l -10.472998,0.97840266 V 14.235411 h -26.37579"
       id="path698"
       style="stroke-width:0.264583" /><path
       d="m -410.79882,36.187467 9.77027,-1.35046 c -2.30135,-14.248871 -11.80995,-22.296702 -25.12166,-22.296702 -18.4658,0 -31.23936,12.912196 -31.23936,33.030583 0,20.353602 12.08538,33.030583 29.61482,33.030583 14.12478,0 24.03289,-7.799652 26.74673,-21.828125 l -9.35699,-1.57099 c -2.17729,9.866842 -8.57145,15.35139 -16.99128,15.35139 -10.99661,0 -18.72747,-9.260417 -18.72747,-24.983811 0,-15.971572 8.14414,-25.231989 19.00317,-25.231989 8.14413,0 14.93784,5.842794 16.3023,15.847483"
       id="path700"
       style="stroke-width:0.264583" /><path
       d="m -282.66641,60.343925 c 3.2385,11.286066 13.76654,17.955683 29.02215,17.955683 15.91627,0 26.44457,-8.240713 26.44457,-19.416448 0,-9.577387 -6.89028,-14.552083 -21.31827,-17.831858 -13.36701,-3.031596 -21.19418,-3.155685 -21.19418,-10.914062 0,-5.953125 5.26415,-9.839325 14.04223,-9.839325 8.3648,0 13.76653,3.403864 15.91627,9.839325 l 9.59115,-1.819037 c -3.37608,-10.197571 -12.29201,-15.778692 -25.1079,-15.778692 -15.11697,0 -24.8322,8.130381 -24.8322,18.686198 0,10.431727 7.0141,14.441752 22.13133,17.707769 12.6918,2.797439 19.9816,3.527689 19.9816,11.161976 0,6.077215 -5.93937,10.569575 -15.6546,10.569575 -9.59115,0 -16.88095,-4.36827 -19.7059,-12.016581 l -9.31545,1.695"
       id="path702"
       style="stroke-width:0.264583" /><path
       d="m 471.7665,87.794445 c 23.8125,0 39.83831,15.489235 39.83831,37.041665 0,19.30638 -18.14883,36.58658 -41.01041,36.58658 -21.45612,0 -37.01521,-15.03441 -37.01521,-35.01495 0,-22.66871 16.50894,-38.613295 38.18466,-38.613295 z m 43.8494,59.269315 v 2.68711 c 0,45.11674 -17.21168,68.91602 -47.84461,68.91602 -15.08945,0 -26.63825,-7.17947 -34.89325,-21.55243 l -16.49518,5.60863 c 8.72305,20.65682 26.63825,31.4325 53.02779,31.4325 39.12129,0 65.99502,-32.54904 65.99502,-86.19595 0,-48.260003 -24.26732,-75.874565 -64.1059,-75.874565 -17.9144,0 -34.64454,7.179733 -45.25433,19.526778 -8.72305,10.100997 -13.4358,22.682467 -13.4358,34.795357 0,29.40843 23.34392,51.181 53.97764,51.181 21.69028,0 39.59225,-10.99662 49.02994,-30.52234"
       fill-rule="evenodd"
       id="path704"
       style="stroke-width:0.264583" /><path
       d="m 526.53525,198.25799 c 9.89436,23.12352 31.10177,35.91189 59.39367,35.91189 18.38298,0 34.87737,-6.50425 46.43966,-18.17634 9.65994,-9.8806 14.60712,-22.22765 14.60712,-36.58659 0,-30.75781 -23.33017,-52.75262 -56.33508,-52.75262 -17.19792,0 -30.40063,6.06345 -39.35678,17.06007 l 2.82496,-51.85569 h 82.50237 l 0.70276,-16.60525 H 539.7356 l -4.71302,84.84658 15.54427,2.68711 c 7.55174,-13.68398 20.73963,-21.09787 36.06271,-21.09787 22.86159,0 40.30662,16.38485 40.30662,38.1582 0,22.22765 -17.91441,38.61329 -42.89954,38.61329 -19.08572,0 -32.75541,-8.98472 -39.82508,-26.04478 l -17.68025,5.84279"
       id="path706"
       style="stroke-width:0.264583" /><path
       d="m -241.8412,231.08484 45.15908,-0.0688 v -70.92686 c 0,-10.77621 4.94718,-16.38485 12.96723,-16.38485 7.77214,0 11.8237,6.95907 11.8237,17.73529 v 69.64627 l 45.68296,-0.0688 v -75.87457 c 0,-29.17295 -11.07943,-42.65083 -39.12129,-42.65083 -16.02661,0 -28.05642,6.73867 -34.65777,19.52678 v -16.38485 l -41.82269,0.11007 -0.0283,115.34245"
       id="path708"
       style="stroke-width:0.264583" /><path
       d="m 152.9965,231.08484 h 33.70792 l 17.29423,-64.44985 15.70963,64.44985 h 34.17623 l 38.73764,-115.41125 h -32.75541 l -17.21168,58.13954 -15.07569,-58.13954 h -35.36156 l -14.60712,56.56792 -16.72934,-56.56792 h -46.20683 l 38.32225,115.41125"
       id="path710"
       style="stroke-width:0.264583" /><path
       d="m -472.85155,231.01605 h 46.53756 l 21.55243,-87.47654 22.25543,87.47654 h 45.59829 L -292.8653,77.914904 h -39.06838 l -23.44049,88.209436 -22.97192,-88.799457 h -42.40212 l -22.37926,89.683167 -22.72373,-89.683167 h -50.80794 l 43.80706,153.693807"
       id="path712"
       style="stroke-width:0.264583" /><path
       d="m -251.02224,77.914904 h -45.70942 V 106.4264 h 45.70942 z"
       id="path714"
       style="stroke-width:0.264583" /><path
       d="m -251.02224,115.63126 h -45.70942 V 231.0134 h 45.70942 z"
       id="path716"
       style="stroke-width:0.264583" /><path
       d="m -48.060368,182.30096 c 0,5.69119 0.482335,9.78403 -2.893748,14.78624 -2.645834,3.87245 -5.787761,5.91185 -10.597092,5.91185 -14.937846,0 -16.991277,-18.1901 -16.977518,-28.42947 0.05503,-21.40083 6.256337,-33.88519 17.211674,-33.89842 3.858419,0 8.199438,1.59851 10.362936,4.56142 3.128168,3.63802 2.893748,9.09505 2.893748,13.64244 z m 46.9899989,48.67275 V 74.938341 H -47.467702 v 49.360669 c -7.468923,-7.05565 -17.583679,-11.8237 -29.392562,-11.8237 -37.110456,0 -49.746956,31.15733 -49.746956,60.94941 0,28.66232 12.88468,59.81965 48.299685,59.81965 15.420181,0 25.783117,-5.00221 32.768646,-17.73529 h 0.482335 v 15.46146 h 43.9869787"
       fill-rule="evenodd"
       id="path718"
       style="stroke-width:0.264583" /><path
       d="m 64.757963,205.53403 c -11.341099,0 -18.686197,-10.34918 -18.686197,-31.96961 0,-21.62148 7.2898,-31.9696 18.631164,-31.9696 11.341365,0 18.658681,10.34918 18.658681,31.9696 0,21.62149 -7.262283,31.96961 -18.603383,31.96961 z m -0.08255,29.0486 c 39.452017,0 65.690747,-24.54275 65.690747,-61.01821 0,-36.71093 -26.23793,-61.02085 -65.690747,-61.02085 -39.232416,0 -65.7039779,24.30859 -65.7039779,61.02085 0,36.47546 26.4715619,61.01821 65.7039779,61.01821"
       fill-rule="evenodd"
       id="path720"
       style="stroke-width:0.264583" /><path
       d="m 275.18109,197.94313 c 6.80746,22.9444 29.18618,35.63673 64.68533,35.63673 39.16362,0 62.98935,-17.59744 62.98935,-40.98396 0,-9.59114 -3.8862,-17.83186 -11.42391,-24.06068 -9.24666,-7.57925 -20.18824,-9.13632 -33.57034,-11.36888 -23.096,-3.78962 -34.61543,-2.89401 -34.53341,-10.01845 0.055,-3.8309 4.63021,-8.00629 13.86311,-8.00629 11.43767,0 18.72747,3.76211 23.10976,10.90031 l 37.45442,-6.02192 c -8.26823,-19.82999 -28.45594,-30.74458 -58.12631,-30.74458 -36.97288,0 -58.37238,16.93598 -58.37238,39.66104 0,9.79778 5.11255,19.15477 13.86311,25.39735 10.94158,7.79965 23.10977,9.57739 36.97288,11.80968 17.2667,2.89401 26.48479,2.06706 27.23091,8.46111 0.52367,4.42357 -6.07721,7.79965 -17.50113,7.79965 -16.05412,0 -25.05286,-4.45108 -27.24414,-12.92595 l -39.39911,4.46484"
       id="path722"
       style="stroke-width:0.264583" /></g></svg>
